<?xml version="1.0" standalone="no"?>
<!DOCTYPE svg PUBLIC "-//W3C//DTD SVG 20010904//EN"
 "http://www.w3.org/TR/2001/REC-SVG-20010904/DTD/svg10.dtd">
<svg version="1.0" xmlns="http://www.w3.org/2000/svg"
 width="768.000000pt" height="768.000000pt" viewBox="0 0 768.000000 768.000000"
 preserveAspectRatio="xMidYMid meet">
<metadata>
Created by potrace 1.14, written by Peter Selinger 2001-2017
</metadata>
<g transform="translate(0.000000,768.000000) scale(0.100000,-0.100000)"
fill="#000000" stroke="none">
<path d="M3757 7574 c-1 -1 -63 -4 -137 -8 -74 -3 -144 -8 -156 -10 -11 -2
-47 -7 -80 -10 -32 -4 -122 -18 -199 -31 -828 -146 -1602 -585 -2152 -1220
-57 -66 -110 -127 -117 -135 -22 -25 -119 -160 -177 -245 -275 -407 -479 -903
-565 -1375 -2 -14 -9 -47 -14 -75 -17 -90 -35 -243 -45 -384 -6 -77 -6 -435 0
-496 10 -109 23 -234 30 -280 2 -11 6 -38 9 -60 6 -38 9 -55 21 -115 2 -14 7
-41 10 -60 3 -19 10 -48 15 -65 5 -16 12 -44 14 -60 22 -126 139 -462 235
-672 256 -557 658 -1054 1156 -1429 95 -72 237 -168 318 -215 33 -19 73 -43
90 -53 65 -39 306 -155 412 -199 193 -79 450 -160 605 -191 14 -3 35 -7 46
-10 12 -2 38 -7 59 -10 20 -4 40 -8 44 -10 3 -2 33 -7 66 -11 32 -3 62 -8 65
-10 8 -4 130 -16 315 -30 155 -12 399 -8 578 10 153 16 157 16 297 40 160 27
489 111 532 135 10 6 23 10 28 10 38 0 434 174 575 253 125 70 171 98 279 169
824 548 1403 1406 1595 2368 19 94 21 104 27 150 3 25 7 52 9 60 4 14 9 50 20
150 22 200 22 636 1 770 -3 14 -10 68 -16 120 -7 52 -14 104 -16 115 -100 533
-255 940 -521 1366 -281 450 -645 824 -1100 1130 -56 38 -104 69 -106 69 -2 0
-44 24 -93 54 -98 59 -311 164 -447 221 -357 149 -790 248 -1187 271 -100 5
-319 11 -323 8z"/>
</g>
</svg>
